<?xml version="1.0" encoding="utf-8"?>
<!-- Generator: Adobe Illustrator 23.0.3, SVG Export Plug-In . SVG Version: 6.00 Build 0)  -->
<svg version="1.1" id="Layer_1" xmlns="http://www.w3.org/2000/svg" xmlns:xlink="http://www.w3.org/1999/xlink" x="0px" y="0px"
	 viewBox="0 0 216 216" style="enable-background:new 0 0 216 216;" xml:space="preserve">
<style type="text/css">
	.st0{fill:#006548;}
	.st1{fill:#C4C6C8;}
	.st2{fill:#FFFFFF;}
</style>
<path class="st0" d="M28,169.8"/>
<g>
	<path class="st0" d="M186.4,85c0-4.2-2.3-11.9-4.1-15.9c-0.7-9.7-4.6-16.8-9-21.8c-3.1-3.5-8.2-7.4-11.4-9
		C161,50.5,159,55.2,152.2,62c0.6-1.9,1.2-4.4,1.3-6.5c0.2-5.2-1.3-13.4-5.7-19.9c-1.1-10.1-5.5-16.6-10.3-20.7
		c-3.3-2.9-8.9-5.9-12.1-6.7c-0.1,6.7-2.6,14.9-5.4,21.9c-4.6,2.4-8.5,6.2-10.5,11l-1.5,3.6l-1.2-3.7c-2.1-6.2-6.3-10.5-11.7-12.4
		c-2.5-6.7-4.7-14.1-4.8-20.4c-3.2,0.9-8.8,3.8-12.1,6.7c-5,4.4-9.7,11.4-10.4,22.5c-4.2,4-6.9,11-5.3,20.2c0.3,2,0.9,4.3,1.1,4.9
		C59,57.4,54.4,50,54.1,38.3c-3.7,2-8.3,5.5-11.4,9c-4.6,5.2-8.7,12.8-9.1,23.3c-8.3,15.8-2.7,33.5,11.5,40.3
		c-8.9,10.4-10.1,22.2-5.3,35.7c7.5,20.9,36.9,32.2,68.3,32.2c31.4,0,60.8-11.3,68.3-32.2c4.8-13.5,3.6-25.2-5.2-35.6
		C181.4,105.7,186.4,95.3,186.4,85z M166.5,47.7c0,0,6.8,5.7,8.8,15.2c-3.1-2.1-6.7-3.5-10.8-3.7c-0.5,0-1.1,0-1.6,0
		C165.4,53.4,166.5,47.7,166.5,47.7z M147.6,84.7c0.5-10.7,8-19.1,16.5-18.6c4.1,0.2,7.7,2.4,10.3,5.8c6.7,7.9-6.3,20.6-10.6,21.3
		c5-0.1,9.8-1.9,13.3-5.5c-3.5,9.7-16.3,12.4-16.3,12.4c5,0.9,10.1,0.2,14.4-2.6c-3.1,4.8-7.8,7.8-13.1,7.5
		C153.5,104.6,147,95.5,147.6,84.7z M130.6,16.2c0,0,6.9,5.1,9.5,14.2c-2.9-1.6-6.2-2.6-9.8-2.6c-0.8,0-1.7,0-2.5,0.1
		C129.9,22.3,130.6,16.2,130.6,16.2z M130.3,34.7c4.1,0,7.8,2,10.5,5.3c5.9,8.8-5.3,20.9-9.6,21.8c5-0.4,9.7-2.4,13-6.1
		c-3,9.9-15.7,13.2-15.7,13.2c5,0.6,10.1-0.3,14.2-3.3c-2.8,4.9-7.4,8.2-12.7,8.1c-8.6,0-15.5-8.8-15.5-19.5
		C114.7,43.3,121.7,34.7,130.3,34.7z M85.3,16.2c0,0,0.6,6.1,2.8,11.7c-0.7-0.1-1.5-0.1-2.2-0.1c-3.7,0-7.1,0.9-10,2.6
		C78.5,21.3,85.3,16.2,85.3,16.2z M85.9,34.7c4.1,0,7.8,1.9,10.6,5.2c6.7,9.2-5.2,20.9-9.4,21.9c5-0.4,9.6-2.4,13-6.2
		c-3,9.9-15.6,13.3-15.6,13.3c5,0.6,10.1-0.4,14.2-3.4c-2.8,5-7.4,8.2-12.6,8.2c-8.6,0-15.6-8.7-15.6-19.4
		C70.4,43.4,77.3,34.7,85.9,34.7z M49.4,47.7c0,0,1.1,5.7,3.6,11.5c-0.5,0-1,0-1.5,0c-4.2,0.2-7.8,1.6-10.9,3.8
		C42.5,53.5,49.4,47.7,49.4,47.7z M37.6,86.5c-0.6-10.7,5.8-19.8,14.4-20.3c4.1-0.2,7.9,1.5,10.9,4.6c7.1,9.1-4,21.2-8.2,22.4
		c4.9-0.7,9.5-3,12.6-6.9c-2.4,10.1-14.8,14.1-14.8,14.1c5,0.3,10.1-0.9,14-4.2c-2.5,5.1-6.9,8.6-12.1,8.9
		C45.7,105.5,38.2,97.2,37.6,86.5z M168.3,143.5c-5.5,15.5-28.9,26.6-60.2,26.6c-31.1,0-54.7-11-60.2-26.5
		c-5.2-14.6-2.2-26.2,16.5-37.3c12.4-7.4,16.2-13,21.9-21.6C91.6,76.7,97.5,73,108,73c10.7,0,16.5,3.7,21.7,11.7
		c5.7,8.6,9.6,14.2,22,21.6c1.5,0.9,2.9,1.8,4.2,2.7c-1.9,7.5-6.3,23.4-21.6,31.5c0,0,18.6-1.9,27.3-26.5c0,0-0.2,23.3-34.2,37.1
		c0,0,30.7-2.1,40.5-29c0,0-1.2,30.3-53.4,40.6c0,0,40.4,1.4,55.8-27C170,138.1,169.3,140.8,168.3,143.5z"/>
	<polygon class="st0" points="139,98.7 116.7,98.7 119.6,109.2 114.9,127.1 97.4,98.7 78.2,98.7 81.1,109.2 71.1,146.9 62.6,157.8 
		85.5,157.8 92.9,130.2 109.9,157.8 123.3,157.8 	"/>
</g>
<path class="st1" d="M182.9,106.6C182.9,106.6,182.9,106.6,182.9,106.6c5-6.1,7.5-13.6,7.5-21.1c0-4.2-1.6-11.4-4.2-17.4
	c-0.9-10.3-5.2-18.1-9.9-23.4c-5.5-6.3-18-12.8-18-12.8s0,8-1.6,14.8c-0.9-4.1-2.4-8.4-5-12.5c-1.3-10.6-6.3-17.8-11.5-22.3
	c-8.3-7.2-18.6-8.7-18.6-8.7s0.8,10.4-4.7,24.1c-3.2,1.9-6.2,4.4-8.4,7.6c-2.4-4.2-6-7.4-10.2-9.4c-4.1-8.8-4-22.6-4-22.6
	s-12.7,3.8-18.6,9C70.1,16.6,65,24.3,63.9,35.7c-2.3,2.5-4,5.8-5,9.7c-1.2-5.6-1.1-13.7-1.1-13.7c-6.6,3.4-14.6,8.8-18.2,13
	c-4.9,5.6-9.4,13.9-10,24.9c-2.7,5.3-3.9,10.9-3.9,16.4c0,10.5,4.9,20.3,13.4,26.2c-4.1,6.1-6.1,12.8-6.1,19.8c0,5.2,1,10.5,3,16
	c4.3,11.9,14.5,20.6,27.3,26.3c12.9,5.7,28.6,8.6,44.7,8.6c16.2,0,31.9-2.9,44.7-8.6c12.8-5.7,23.1-14.4,27.4-26.3
	c1.9-5.4,3-10.8,3-16c0-4-0.6-8-2-11.8c0,0,0,0,0,0c0.1,0,0.3,0,0.4,0c3.8,0,6.9-3.1,6.9-6.9C188.4,110,186,107.2,182.9,106.6z
	 M176.3,146.5c-7.5,20.9-36.9,32.2-68.3,32.2c-31.4,0-60.8-11.3-68.3-32.2c-4.8-13.5-3.6-25.3,5.3-35.7
	c-14.2-6.7-19.8-24.5-11.5-40.3C33.9,60,38,52.5,42.6,47.2c3.1-3.5,7.7-7.1,11.4-9c0.3,11.7,4.9,19.1,9.6,24.3
	c-0.1-0.6-0.7-2.9-1.1-4.9c-1.6-9.3,1.1-16.3,5.3-20.2c0.7-11.1,5.4-18.1,10.4-22.5c3.3-2.9,8.8-5.7,12.1-6.7
	c0.1,6.3,2.3,13.7,4.8,20.4c5.4,1.9,9.6,6.2,11.7,12.4l1.2,3.7l1.5-3.6c2-4.7,5.8-8.6,10.5-11c2.8-7.1,5.2-15.2,5.4-21.9
	c3.2,0.7,8.8,3.8,12.1,6.7c4.7,4.1,9.2,10.6,10.3,20.7c4.3,6.5,5.9,14.7,5.7,19.9c-0.1,2.1-0.7,4.6-1.3,6.5
	c6.8-6.9,8.7-11.5,9.6-23.7c3.2,1.6,8.3,5.5,11.4,9c4.3,5,8.3,12.1,9,21.8c1.8,4.1,4.1,11.7,4.1,15.9c0,10.3-4.9,20.7-15.3,26
	C179.9,121.3,181.1,133.1,176.3,146.5z"/>
<g>
	<path class="st2" d="M88.1,27.9c-2.2-5.6-2.8-11.7-2.8-11.7s-6.9,5.1-9.5,14.2c2.9-1.6,6.3-2.5,10-2.6
		C86.6,27.8,87.4,27.8,88.1,27.9z"/>
	<path class="st2" d="M53,59.2c-2.4-5.8-3.6-11.5-3.6-11.5s-6.9,5.7-8.8,15.3c3-2.2,6.7-3.5,10.9-3.8C52,59.2,52.5,59.1,53,59.2z"/>
	<path class="st2" d="M114.6,162.6c52.1-10.4,53.4-40.6,53.4-40.6c-9.8,26.9-40.5,29-40.5,29c34-13.8,34.2-37.1,34.2-37.1
		c-8.7,24.6-27.3,26.5-27.3,26.5c15.4-8.1,19.7-23.9,21.6-31.5c-1.3-0.9-2.7-1.8-4.2-2.7c-12.4-7.4-16.2-13-22-21.6
		c-5.3-8-11.1-11.7-21.7-11.7c-10.6,0-16.4,3.7-21.7,11.7c-5.7,8.6-9.5,14.2-21.9,21.6C45.8,117.4,42.7,129,48,143.6
		c5.5,15.5,29.1,26.5,60.2,26.5c31.4,0,54.7-11.1,60.2-26.6c1-2.8,1.7-5.4,2-8C154.9,164,114.6,162.6,114.6,162.6z M92.9,130.2
		l-7.3,27.7H62.6l8.5-10.9l10-37.7l-2.9-10.5h19.2l17.5,28.4l4.7-17.9l-2.9-10.5H139l-15.7,59.2h-13.4L92.9,130.2z"/>
	<path class="st2" d="M54.2,105c5.2-0.3,9.6-3.8,12.1-8.9c-3.9,3.3-8.9,4.6-14,4.2c0,0,12.4-4,14.8-14.1c-3.1,3.9-7.7,6.2-12.6,6.9
		c4.2-1.2,15.3-13.3,8.2-22.4c-2.9-3-6.8-4.8-10.9-4.6c-8.6,0.5-15,9.6-14.4,20.3C38.2,97.2,45.7,105.5,54.2,105z"/>
	<path class="st2" d="M86,73.7c5.2,0,9.8-3.3,12.6-8.2c-4.1,3-9.2,4.1-14.2,3.4c0,0,12.6-3.3,15.6-13.3c-3.3,3.7-8,5.8-13,6.2
		c4.2-0.9,16.1-12.7,9.4-21.9c-2.8-3.2-6.5-5.2-10.6-5.2c-8.6,0-15.5,8.8-15.5,19.5C70.4,65,77.4,73.7,86,73.7z"/>
	<path class="st2" d="M130.1,73.6c5.2,0,9.8-3.2,12.7-8.1c-4.1,3-9.2,4-14.2,3.3c0,0,12.6-3.3,15.7-13.2c-3.4,3.7-8,5.7-13,6.1
		c4.2-0.9,15.5-13,9.6-21.8c-2.7-3.2-6.5-5.2-10.5-5.3c-8.6,0-15.6,8.7-15.6,19.4C114.6,64.9,121.5,73.6,130.1,73.6z"/>
	<path class="st2" d="M162.1,105c5.2,0.2,10-2.7,13.1-7.5c-4.2,2.8-9.4,3.5-14.4,2.6c0,0,12.8-2.6,16.3-12.4
		c-3.5,3.5-8.3,5.3-13.3,5.5c4.3-0.7,17.3-13.4,10.6-21.3c-2.6-3.4-6.2-5.5-10.3-5.8c-8.6-0.4-16,7.9-16.5,18.6
		C147,95.5,153.5,104.6,162.1,105z"/>
	<path class="st2" d="M140,30.4c-2.6-9.1-9.5-14.2-9.5-14.2s-0.6,6.1-2.8,11.7c0.8-0.1,1.6-0.1,2.5-0.1
		C133.8,27.8,137.1,28.8,140,30.4z"/>
	<path class="st2" d="M175.3,62.9c-1.9-9.5-8.8-15.2-8.8-15.2s-1.1,5.7-3.6,11.5c0.5,0,1.1,0,1.6,0
		C168.5,59.4,172.2,60.8,175.3,62.9z"/>
</g>
<g>
	<path class="st0" d="M179.4,113.3c0-1.5,1.2-2.7,2.7-2.7c1.5,0,2.7,1.2,2.7,2.7c0,1.5-1.2,2.7-2.7,2.7S179.4,114.9,179.4,113.3z
		 M184.2,113.3c0-1.2-0.8-2-2-2c-1.2,0-2,0.8-2,2c0,1.2,0.8,2,2,2C183.3,115.4,184.2,114.6,184.2,113.3z M183.5,114.8h-0.7l-0.6-1.2
		h-0.4v1.2h-0.6v-2.9h1.4c0.7,0,1.1,0.2,1.1,0.9c0,0.5-0.3,0.7-0.8,0.8L183.5,114.8z M182.5,113.1c0.2,0,0.4,0,0.4-0.3
		c0-0.3-0.4-0.3-0.6-0.3h-0.6v0.7L182.5,113.1L182.5,113.1z"/>
</g>
<g>
	<path class="st0" d="M47.1,191.1c-0.5-0.6-1.1-1.1-1.8-1.5s-1.5-0.5-2.3-0.5c-0.9,0-1.7,0.2-2.5,0.5c-0.7,0.3-1.4,0.8-2,1.5
		c-0.5,0.6-1,1.3-1.3,2.2c-0.3,0.8-0.4,1.7-0.4,2.6c0,0.9,0.1,1.8,0.4,2.7c0.3,0.8,0.7,1.5,1.3,2.1s1.2,1.1,2,1.4
		c0.7,0.3,1.6,0.5,2.5,0.5c1,0,1.9-0.2,2.7-0.6c0.8-0.4,1.5-0.9,2-1.7l1.4,1.2c-0.7,1-1.6,1.7-2.7,2.2c-1,0.4-2.2,0.7-3.5,0.7
		c-1.2,0-2.3-0.2-3.3-0.6c-1-0.4-1.9-1-2.6-1.8c-0.7-0.7-1.3-1.7-1.7-2.7c-0.4-1-0.6-2.2-0.6-3.4c0-1.2,0.2-2.3,0.6-3.4
		c0.4-1,1-1.9,1.7-2.7c0.7-0.7,1.6-1.4,2.6-1.8c1-0.4,2.1-0.7,3.3-0.7c1.1,0,2.2,0.2,3.2,0.6c1,0.4,1.9,1,2.6,2L47.1,191.1z"/>
	<path class="st0" d="M57.2,187.8h1.8l7,16.4h-2.3l-1.7-4h-8.2l-1.7,4H50L57.2,187.8z M58.1,190.3L58.1,190.3l-3.4,8.1h6.7
		L58.1,190.3z"/>
	<path class="st0" d="M77.1,189.6h-5.4v14.6h-1.9v-14.6h-5.4v-1.8h12.8L77.1,189.6L77.1,189.6z"/>
</g>
<g>
	<path class="st0" d="M80.4,187.3h8.5c1.2,0,2.4,0.1,3.5,0.3c1.1,0.2,2.1,0.6,3,1.2c0.8,0.5,1.5,1.3,2,2.2s0.7,2.1,0.7,3.5
		c0,1.6-0.2,2.9-0.8,3.8c-0.5,1-1.3,1.7-2.2,2.2c-0.9,0.5-2,0.9-3.2,1.1c-1.2,0.2-2.5,0.3-3.8,0.3h-3.2v10.4h-4.5L80.4,187.3
		L80.4,187.3z M87.5,198.2c0.6,0,1.3,0,2,0s1.3-0.2,1.9-0.4c0.6-0.2,1-0.6,1.4-1c0.3-0.5,0.5-1.1,0.5-2c0-0.8-0.1-1.4-0.5-1.8
		c-0.3-0.4-0.7-0.8-1.3-1c-0.5-0.2-1.1-0.4-1.7-0.5c-0.6,0-1.2-0.1-1.8-0.1h-3.2v7.1L87.5,198.2L87.5,198.2z"/>
	<path class="st0" d="M107.6,187.3h3.9l10.9,25.2h-5.1l-2.3-5.8H104l-2.3,5.8h-5L107.6,187.3z M113.3,202.9l-3.9-10.2l-3.9,10.2
		H113.3z"/>
	<path class="st0" d="M121.4,187.3h4.9l4.7,18.1h0l5.6-18.1h4.4l5.5,18.1h0l4.9-18.1h4.5l-7.2,25.1h-4.3l-5.8-19.1h0l-5.8,19.1h-4.1
		L121.4,187.3z"/>
	<path class="st0" d="M171.5,192.7c-0.5-0.7-1.1-1.2-1.9-1.5c-0.8-0.3-1.6-0.5-2.5-0.5c-0.5,0-1,0-1.5,0.2c-0.5,0.1-0.9,0.3-1.3,0.5
		c-0.4,0.2-0.7,0.6-0.9,1s-0.3,0.9-0.3,1.5c0,0.8,0.3,1.5,0.9,1.9c0.6,0.4,1.3,0.8,2.2,1.2c0.9,0.3,1.8,0.6,2.9,0.9
		c1,0.3,2,0.7,2.9,1.3c0.9,0.5,1.6,1.2,2.2,2.1s0.9,2.1,0.9,3.6c0,1.3-0.2,2.5-0.7,3.5c-0.5,1-1.1,1.8-2,2.5
		c-0.8,0.6-1.8,1.1-2.9,1.5c-1.1,0.3-2.3,0.5-3.5,0.5c-1.5,0-3.1-0.2-4.5-0.8c-1.4-0.5-2.7-1.4-3.7-2.6l3.4-3.3
		c0.5,0.8,1.2,1.5,2.1,1.9c0.9,0.4,1.8,0.7,2.8,0.7c0.5,0,1,0,1.5-0.2c0.5-0.1,1-0.3,1.4-0.6c0.4-0.3,0.7-0.6,1-1.1
		c0.2-0.4,0.4-0.9,0.4-1.5c0-0.9-0.3-1.6-0.9-2.1c-0.6-0.5-1.3-0.9-2.2-1.2c-0.9-0.3-1.8-0.6-2.9-1c-1-0.3-2-0.7-2.9-1.2
		c-0.9-0.5-1.6-1.2-2.2-2.1c-0.6-0.9-0.9-2.1-0.9-3.6c0-1.3,0.2-2.4,0.8-3.4c0.5-0.9,1.2-1.7,2.1-2.3c0.8-0.6,1.8-1.1,3-1.4
		c1.1-0.3,2.2-0.4,3.4-0.4c1.3,0,2.6,0.2,3.8,0.6c1.2,0.4,2.3,1,3.3,2L171.5,192.7z"/>
</g>
</svg>
